<?xml version="1.0" encoding="UTF-8" standalone="no"?>
<!DOCTYPE svg PUBLIC "-//W3C//DTD SVG 1.1//EN"
 "http://www.w3.org/Graphics/SVG/1.1/DTD/svg11.dtd">
<!-- Generated by graphviz version 5.0.0 (20220707.1540)
 -->
<!-- Title: UmlClassDiagram Pages: 1 -->
<svg width="1333pt" height="517pt"
 viewBox="0.00 0.00 1333.32 517.40" xmlns="http://www.w3.org/2000/svg" xmlns:xlink="http://www.w3.org/1999/xlink">
<g id="graph0" class="graph" transform="scale(1 1) rotate(0) translate(4 513.4)">
<title>UmlClassDiagram</title>
<polygon fill="white" stroke="transparent" points="-4,4 -4,-513.4 1329.32,-513.4 1329.32,4 -4,4"/>
<!-- 0 -->
<g id="node1" class="node">
<title>0</title>
<polygon fill="#f2f2f2" stroke="black" points="0,-154.3 0,-405.5 513.27,-405.5 513.27,-154.3 0,-154.3"/>
<text text-anchor="middle" x="256.63" y="-388.9" font-family="Times,serif" font-size="14.00">Admin</text>
<polyline fill="none" stroke="black" points="0,-380.7 513.27,-380.7 "/>
<text text-anchor="start" x="8" y="-364.1" font-family="Times,serif" font-size="14.00">External:</text>
<text text-anchor="start" x="8" y="-347.3" font-family="Times,serif" font-size="14.00"> &#160;&#160;&#160;&lt;&lt;payable&gt;&gt; null()</text>
<text text-anchor="start" x="8" y="-330.5" font-family="Times,serif" font-size="14.00"> &#160;&#160;&#160;&lt;&lt;payable&gt;&gt; collectFee(_from: address, asset: address, amount: uint256)</text>
<text text-anchor="start" x="8" y="-313.7" font-family="Times,serif" font-size="14.00"> &#160;&#160;&#160;setFactories(_lockerFactory: address, _loanFactory: address)</text>
<text text-anchor="start" x="8" y="-296.9" font-family="Times,serif" font-size="14.00"> &#160;&#160;&#160;updateLoanImplementation(_address: address)</text>
<text text-anchor="start" x="8" y="-280.1" font-family="Times,serif" font-size="14.00"> &#160;&#160;&#160;updateLockerImplementation(_address: address)</text>
<text text-anchor="start" x="8" y="-263.3" font-family="Times,serif" font-size="14.00"> &#160;&#160;&#160;addBorrower(_address: address)</text>
<text text-anchor="start" x="8" y="-246.5" font-family="Times,serif" font-size="14.00"> &#160;&#160;&#160;removeBorrower(_address: address)</text>
<text text-anchor="start" x="8" y="-229.7" font-family="Times,serif" font-size="14.00"> &#160;&#160;&#160;setOwner(_address: address)</text>
<text text-anchor="start" x="8" y="-212.9" font-family="Times,serif" font-size="14.00"> &#160;&#160;&#160;createProposal(conditions: uint256[4], _fundAsset: address, _collateralAsset: address)</text>
<text text-anchor="start" x="8" y="-196.1" font-family="Times,serif" font-size="14.00"> &#160;&#160;&#160;withdrawFee(asset: address)</text>
<text text-anchor="start" x="8" y="-179.3" font-family="Times,serif" font-size="14.00">Public:</text>
<text text-anchor="start" x="8" y="-162.5" font-family="Times,serif" font-size="14.00"> &#160;&#160;&#160;constructor()</text>
</g>
<!-- 12 -->
<g id="node6" class="node">
<title>12</title>
<polygon fill="#f2f2f2" stroke="black" points="638.85,-442.5 638.85,-508.9 728.41,-508.9 728.41,-442.5 638.85,-442.5"/>
<text text-anchor="middle" x="683.63" y="-492.3" font-family="Times,serif" font-size="14.00">&lt;&lt;Library&gt;&gt;</text>
<text text-anchor="middle" x="683.63" y="-475.5" font-family="Times,serif" font-size="14.00">TransferLib</text>
<polyline fill="none" stroke="black" points="638.85,-467.3 728.41,-467.3 "/>
<text text-anchor="middle" x="683.63" y="-450.7" font-family="Times,serif" font-size="14.00"> </text>
</g>
<!-- 0&#45;&gt;12 -->
<g id="edge1" class="edge">
<title>0&#45;&gt;12</title>
<path fill="none" stroke="black" stroke-dasharray="5,2" d="M513.5,-401.9C516.56,-403.27 519.61,-404.64 522.63,-406 557.94,-421.83 597.96,-438.91 629.26,-452.08"/>
<polygon fill="black" stroke="black" points="628.1,-455.39 638.68,-456.03 630.82,-448.93 628.1,-455.39"/>
</g>
<!-- 2 -->
<g id="node2" class="node">
<title>2</title>
<polygon fill="#f2f2f2" stroke="black" points="531.2,-162.7 531.2,-397.1 836.07,-397.1 836.07,-162.7 531.2,-162.7"/>
<text text-anchor="middle" x="683.63" y="-380.5" font-family="Times,serif" font-size="14.00">Loan</text>
<polyline fill="none" stroke="black" points="531.2,-372.3 836.07,-372.3 "/>
<text text-anchor="start" x="539.2" y="-355.7" font-family="Times,serif" font-size="14.00">External:</text>
<text text-anchor="start" x="539.2" y="-338.9" font-family="Times,serif" font-size="14.00"> &#160;&#160;&#160;&lt;&lt;payable&gt;&gt; depositFunds(amount: uint256)</text>
<text text-anchor="start" x="539.2" y="-322.1" font-family="Times,serif" font-size="14.00"> &#160;&#160;&#160;&lt;&lt;payable&gt;&gt; depositCollateral()</text>
<text text-anchor="start" x="539.2" y="-305.3" font-family="Times,serif" font-size="14.00"> &#160;&#160;&#160;&lt;&lt;payable&gt;&gt; returnLoan()</text>
<text text-anchor="start" x="539.2" y="-288.5" font-family="Times,serif" font-size="14.00"> &#160;&#160;&#160;initialize(_info: LoanInfo)</text>
<text text-anchor="start" x="539.2" y="-271.7" font-family="Times,serif" font-size="14.00"> &#160;&#160;&#160;approveProposal(_conditions: uint256[8])</text>
<text text-anchor="start" x="539.2" y="-254.9" font-family="Times,serif" font-size="14.00"> &#160;&#160;&#160;updateCollateralAssetPriceRatio(_ratio: uint256)</text>
<text text-anchor="start" x="539.2" y="-238.1" font-family="Times,serif" font-size="14.00"> &#160;&#160;&#160;takeLoan()</text>
<text text-anchor="start" x="539.2" y="-221.3" font-family="Times,serif" font-size="14.00"> &#160;&#160;&#160;withdrawCollateral()</text>
<text text-anchor="start" x="539.2" y="-204.5" font-family="Times,serif" font-size="14.00"> &#160;&#160;&#160;claim()</text>
<text text-anchor="start" x="539.2" y="-187.7" font-family="Times,serif" font-size="14.00"> &#160;&#160;&#160;claimDefault()</text>
<text text-anchor="start" x="539.2" y="-170.9" font-family="Times,serif" font-size="14.00">Public:</text>
</g>
<!-- 2&#45;&gt;12 -->
<g id="edge2" class="edge">
<title>2&#45;&gt;12</title>
<path fill="none" stroke="black" stroke-dasharray="5,2" d="M683.63,-397.27C683.63,-409.57 683.63,-421.43 683.63,-432.02"/>
<polygon fill="black" stroke="black" points="680.13,-432.15 683.63,-442.15 687.13,-432.15 680.13,-432.15"/>
</g>
<!-- 3 -->
<g id="node3" class="node">
<title>3</title>
<polygon fill="#f2f2f2" stroke="black" points="529.84,-0.5 529.84,-117.3 837.43,-117.3 837.43,-0.5 529.84,-0.5"/>
<text text-anchor="middle" x="683.63" y="-100.7" font-family="Times,serif" font-size="14.00">LoanFactory</text>
<polyline fill="none" stroke="black" points="529.84,-92.5 837.43,-92.5 "/>
<text text-anchor="start" x="537.84" y="-75.9" font-family="Times,serif" font-size="14.00">External:</text>
<text text-anchor="start" x="537.84" y="-59.1" font-family="Times,serif" font-size="14.00"> &#160;&#160;&#160;setLoanImpl(_address: address)</text>
<text text-anchor="start" x="537.84" y="-42.3" font-family="Times,serif" font-size="14.00"> &#160;&#160;&#160;createLoan(_conditions: LoanInfo): address</text>
<text text-anchor="start" x="537.84" y="-25.5" font-family="Times,serif" font-size="14.00">Public:</text>
<text text-anchor="start" x="537.84" y="-8.7" font-family="Times,serif" font-size="14.00"> &#160;&#160;&#160;constructor(_admin: address, _loanImpl: address)</text>
</g>
<!-- 3&#45;&gt;2 -->
<g id="edge3" class="edge">
<title>3&#45;&gt;2</title>
<path fill="none" stroke="black" stroke-dasharray="5,2" d="M683.63,-117.44C683.63,-128.33 683.63,-140.11 683.63,-152.18"/>
<polygon fill="black" stroke="black" points="680.13,-152.38 683.63,-162.38 687.13,-152.38 680.13,-152.38"/>
</g>
<!-- 4 -->
<g id="node4" class="node">
<title>4</title>
<polygon fill="#f2f2f2" stroke="black" points="853.95,-162.7 853.95,-397.1 1325.32,-397.1 1325.32,-162.7 853.95,-162.7"/>
<text text-anchor="middle" x="1089.63" y="-380.5" font-family="Times,serif" font-size="14.00">Locker</text>
<polyline fill="none" stroke="black" points="853.95,-372.3 1325.32,-372.3 "/>
<text text-anchor="start" x="861.95" y="-355.7" font-family="Times,serif" font-size="14.00">External:</text>
<text text-anchor="start" x="861.95" y="-338.9" font-family="Times,serif" font-size="14.00"> &#160;&#160;&#160;&lt;&lt;payable&gt;&gt; null()</text>
<text text-anchor="start" x="861.95" y="-322.1" font-family="Times,serif" font-size="14.00"> &#160;&#160;&#160;&lt;&lt;payable&gt;&gt; depositFunds(_from: address, amount: uint256)</text>
<text text-anchor="start" x="861.95" y="-305.3" font-family="Times,serif" font-size="14.00"> &#160;&#160;&#160;&lt;&lt;payable&gt;&gt; depositCollateral(amount: uint256)</text>
<text text-anchor="start" x="861.95" y="-288.5" font-family="Times,serif" font-size="14.00"> &#160;&#160;&#160;&lt;&lt;payable&gt;&gt; returnAsset(_from: address, principal: uint256, interest: uint256)</text>
<text text-anchor="start" x="861.95" y="-271.7" font-family="Times,serif" font-size="14.00"> &#160;&#160;&#160;initialize(_fundAsset: address, _collateralAsset: address)</text>
<text text-anchor="start" x="861.95" y="-254.9" font-family="Times,serif" font-size="14.00"> &#160;&#160;&#160;setLoanAddress(_loanAddress: address)</text>
<text text-anchor="start" x="861.95" y="-238.1" font-family="Times,serif" font-size="14.00"> &#160;&#160;&#160;withdrawCollateral(_to: address)</text>
<text text-anchor="start" x="861.95" y="-221.3" font-family="Times,serif" font-size="14.00"> &#160;&#160;&#160;claim(_from: address)</text>
<text text-anchor="start" x="861.95" y="-204.5" font-family="Times,serif" font-size="14.00"> &#160;&#160;&#160;claimDefault(_from: address)</text>
<text text-anchor="start" x="861.95" y="-187.7" font-family="Times,serif" font-size="14.00"> &#160;&#160;&#160;lendAsset(_to: address)</text>
<text text-anchor="start" x="861.95" y="-170.9" font-family="Times,serif" font-size="14.00">Public:</text>
</g>
<!-- 4&#45;&gt;12 -->
<g id="edge4" class="edge">
<title>4&#45;&gt;12</title>
<path fill="none" stroke="black" stroke-dasharray="5,2" d="M863.32,-397.16C857.03,-400.16 850.8,-403.12 844.63,-406 809.46,-422.46 769.29,-439.6 737.87,-452.65"/>
<polygon fill="black" stroke="black" points="736.32,-449.5 728.42,-456.56 739,-455.97 736.32,-449.5"/>
</g>
<!-- 5 -->
<g id="node5" class="node">
<title>5</title>
<polygon fill="#f2f2f2" stroke="black" points="878.9,-0.5 878.9,-117.3 1300.36,-117.3 1300.36,-0.5 878.9,-0.5"/>
<text text-anchor="middle" x="1089.63" y="-100.7" font-family="Times,serif" font-size="14.00">LockerFactory</text>
<polyline fill="none" stroke="black" points="878.9,-92.5 1300.36,-92.5 "/>
<text text-anchor="start" x="886.9" y="-75.9" font-family="Times,serif" font-size="14.00">External:</text>
<text text-anchor="start" x="886.9" y="-59.1" font-family="Times,serif" font-size="14.00"> &#160;&#160;&#160;setLockerImpl(_address: address)</text>
<text text-anchor="start" x="886.9" y="-42.3" font-family="Times,serif" font-size="14.00"> &#160;&#160;&#160;createLocker(_fundAsset: address, _collateralAsset: address): address</text>
<text text-anchor="start" x="886.9" y="-25.5" font-family="Times,serif" font-size="14.00">Public:</text>
<text text-anchor="start" x="886.9" y="-8.7" font-family="Times,serif" font-size="14.00"> &#160;&#160;&#160;constructor(_admin: address, _lockerImpl: address)</text>
</g>
<!-- 5&#45;&gt;4 -->
<g id="edge5" class="edge">
<title>5&#45;&gt;4</title>
<path fill="none" stroke="black" stroke-dasharray="5,2" d="M1089.63,-117.44C1089.63,-128.33 1089.63,-140.11 1089.63,-152.18"/>
<polygon fill="black" stroke="black" points="1086.13,-152.38 1089.63,-162.38 1093.13,-152.38 1086.13,-152.38"/>
</g>
</g>
</svg>
